<?xml version="1.0" encoding="utf-8"?>
<!-- Generator: Adobe Illustrator 18.0.0, SVG Export Plug-In . SVG Version: 6.00 Build 0)  -->
<!DOCTYPE svg PUBLIC "-//W3C//DTD SVG 1.1//EN" "http://www.w3.org/Graphics/SVG/1.1/DTD/svg11.dtd">
<svg version="1.1" id="Layer_1" xmlns="http://www.w3.org/2000/svg" xmlns:xlink="http://www.w3.org/1999/xlink" x="0px" y="0px"
	 viewBox="0 0 320.4 98.9" enable-background="new 0 0 320.4 98.9" xml:space="preserve">
<g>
	<path d="M240.5,28.7c0.5,1.7,0.1,3.7,0.1,5.4c0.1,6.9,1.1,13.8,2.7,20.5c3.6,14.8,10.7,28.7,20.6,40.3c0,0,1.7,2.3,6.2,4
		c4.1,1.5,2.8-6.6,2.5-8.5c0.1,0.5,13.4-2.5,14.2-2.7c5.5-1.5,10.9-3.7,16.1-6.2c1.3-0.6,2.5-1.2,3.8-1.9c0.9-0.5,2.6-1.9,3.6-1.9
		c0.9,0,2.4,1.2,3.3,1.5c1.3,0.5,2.6,0.7,4,0.5c4.5-0.7,2.3-10.7,2.3-10.7s-5.5-32-19-55c0,0,1.2-7.3-0.3-10.7
		c-1-2.2-4.2-1.2-5.8-0.4c-1.3,0.6-2.6,1.5-3.6,2.5c-1.5,1.4-1.6,2.7-3.7,3.1c-1.1,0.2-2.3,0.3-3.4,0.4c-3.6,0.5-7.2,1.1-10.7,1.9
		c-4.3,0.9-8.5,2.1-12.6,3.6c-2.1,0.8-4.2,1.7-6.1,2.7c-1.3,0.7-2.5,1.9-3.9,2.6c-1.8,0.8-3.1,0.2-5-0.1c-2.3-0.4-7.9-1.7-9.7,0.4
		c-2.3,2.7,2.8,5.7,4,7.6C240.3,28,240.4,28.3,240.5,28.7z"/>
	<g>
		<g>
			<path fill="#FFFFFF" d="M280,49.9c-2.1,3.5-5.7,9.8-2.1,13.4c3,3.1,12,1.1,11.5-3.8c-0.4-5.1-8.6-3.5-10.6-0.4
				c-2.1,3.5-1.5,8.8-0.9,12.7c0.3,1.9,3.2,1.1,2.9-0.8c-0.5-2.9-1.6-11.4,2.7-11.7c0.7,0,1.4,0.1,2.1,0.2c0.1,0.4,0.2,0.9,0.2,1.3
				c-0.8,0.3-1.7,0.5-2.6,0.6c-1.7,0.2-3.8,0.3-3.9-1.9c-0.1-2.8,1.8-5.8,3.2-8.1C283.6,49.7,281,48.2,280,49.9L280,49.9z"/>
		</g>
	</g>
</g>
<g>
	<path fill="#FFFFFF" d="M129.7,40.8c-0.7,0.4-1.3,0.9-1.7,1.7c-0.6,1-0.5,2.4,0.2,3.3c0.7,0.9,1.9,1.4,3.1,1.2
		c0.7-0.1,1.2-0.5,1.8-0.9c0.4-0.3,0.7-0.6,0.9-1c0.8-1.5-0.1-3.5-1.7-4.4c-0.2-0.1-0.5-0.2-0.7-0.3
		C130.9,40.2,130.2,40.5,129.7,40.8z"/>
	<path fill="#FFFFFF" d="M89.7,40.8c-0.7,0.4-1.3,0.9-1.7,1.7c-0.6,1-0.5,2.4,0.2,3.3c0.7,0.9,1.9,1.4,3.1,1.2
		c0.7-0.1,1.2-0.5,1.8-0.9c0.4-0.3,0.7-0.6,0.9-1c0.8-1.5-0.1-3.5-1.7-4.4c-0.2-0.1-0.5-0.2-0.7-0.3C90.9,40.2,90.2,40.5,89.7,40.8z
		"/>
	<path d="M81.2,20.4c-0.2,1.3,0.5,2.4,1.3,3.4c0.8,1.1,1.4,2.3,1.4,3.7c0.1,1.3-0.3,2.6-1,3.7c-0.4,0.5-0.7,1-1,1.6
		c-0.3,0.7-0.6,1.3-0.8,2c-0.7,2.1-1.2,4.2-1.6,6.4c0,0.1,0,0.2-0.1,0.3c-1.1,6.1-1.1,12.6-0.8,18.7c0.3,8,1.8,15.8,3.9,23.4
		c0.5,1.8,1.1,3.5,1.5,5.3c0.5,2,1.2,4,1.9,5.9c0.3,0.9,0.7,1.9,1.2,2.8c0.1,0.3,0.3,0.6,0.5,0.8c0.3,0.3,0.8,0.5,1.2,0.4
		c0.4,0,0.9-0.1,1.3-0.3c0.6-0.3,1.2-0.7,1.6-1.2c0.3-0.3,0.5-0.7,0.7-1.1c0.3-0.5,0.5-1,0.8-1.5c0.1-0.2,0.2-0.4,0.4-0.6
		c0.6-0.7,1.7-0.7,2.6-0.7c1.1-0.1,2.2,0.1,3.3,0.3c2.9,0.5,5.8,1,8.7,1.6c2.5,0.4,5,0.9,7.6,1c4.1,0.2,8.1-0.4,12.1-1.1
		c2-0.3,3.9-0.6,5.9-0.9c1.7-0.3,3.3-0.6,3.9,1.2c0.5,1.5,0.6,3.4,2.8,2.9c0.8-0.2,1.5-0.7,2.1-1.3c2.3-2.2,4.1-4.9,5-7.9
		c2.3-7.3,1.9-16,1.9-23.6c-0.1-9-1.8-17.9-1.8-26.7c0-2.6-0.4-5.9,0.5-8.4c0.9-2.6,2.6-4.7,2.7-7.6c0-0.9-0.1-1.9-0.5-2.7
		c-1.2-2.3-4.4-3-6.8-2.2c-1,0.3-2,0.9-2.9,1.5c-0.7,0.5-1.4,1.4-2.3,1.6c-1,0.3-2,0.6-3,0.6c-0.5,0-1-0.1-1.5-0.1
		c-1.2-0.1-2.3-0.1-3.5-0.2c-1.2-0.1-2.3-0.2-3.5-0.2c-2.4-0.1-4.8,0-7.1,0c-2.6,0-5.2,0.1-7.8,0.1c-1.5,0-3,0.1-4.6,0.2
		c-0.6,0-1.1-0.2-1.6-0.2c-0.7,0-1.4,0-2,0.1c-3.5,0.2-7,0.1-10.5-0.2c-0.6-0.1-1.2-0.2-1.7-0.7c-0.5-0.4-0.9-1-1.4-1.3
		c-0.8-0.6-1.7-0.8-2.7-1c-1.2-0.3-2.5-0.4-3.7,0C82.4,18.2,81.4,19.2,81.2,20.4z"/>
	<path fill="#FFFFFF" stroke="#FFFFFF" stroke-miterlimit="10" d="M90.7,40.8c-0.7,0.4-1.3,0.9-1.7,1.7c-0.6,1-0.5,2.4,0.2,3.3
		c0.7,0.9,1.9,1.4,3.1,1.2c0.7-0.1,1.2-0.5,1.8-0.9c0.4-0.3,0.7-0.6,0.9-1c0.8-1.5-0.1-3.5-1.7-4.4c-0.2-0.1-0.5-0.2-0.7-0.3
		C91.9,40.2,91.2,40.5,90.7,40.8z"/>
	<g>
		<path fill="#FFFFFF" stroke="#FFFFFF" stroke-miterlimit="10" d="M130.7,40.8c-0.7,0.4-1.3,0.9-1.7,1.7c-0.6,1-0.5,2.4,0.2,3.3
			c0.7,0.9,1.9,1.4,3.1,1.2c0.7-0.1,1.2-0.5,1.8-0.9c0.4-0.3,0.7-0.6,0.9-1c0.8-1.5-0.1-3.5-1.7-4.4c-0.2-0.1-0.5-0.2-0.7-0.3
			C131.9,40.2,131.2,40.5,130.7,40.8z"/>
	</g>
	<g>
		<path fill="#FFFFFF" stroke="#000000" stroke-miterlimit="10" d="M99.3,45.6c-1.6,2.7-0.2,6.5,2.4,8.4c2.6,1.9,6,2.2,9.1,2.3
			c2.7,0,5.4-0.1,8-0.5c1.6-0.2,3.3-0.5,4.6-1.5c1.9-1.4,2.6-3.9,2.1-6.2c-0.4-1.5-1.3-2.9-2.5-3.8c-1.5-1.3-3-1.3-4.8-1.3
			c-3.8,0-7.5-0.2-11.3-0.2C104.1,42.7,100.9,42.9,99.3,45.6z"/>
		<path stroke="#000000" stroke-miterlimit="10" d="M105.1,48.1c-0.3,1.2-0.3,2.6,0.3,3.7c0.1,0.2,0.3,0.5,0.6,0.6
			c0.5,0.2,1-0.1,1.3-0.4c0.3-0.4,0.4-0.9,0.5-1.4c0.2-1.1,0.4-2.3-0.2-3.1c-0.4-0.5-1.1-0.9-1.6-0.6
			C105.4,47,105.2,47.6,105.1,48.1z"/>
		<path stroke="#000000" stroke-miterlimit="10" d="M115.1,48.1c-0.3,1.2-0.3,2.6,0.3,3.7c0.1,0.2,0.3,0.5,0.6,0.6
			c0.5,0.2,1-0.1,1.3-0.4c0.3-0.4,0.4-0.9,0.5-1.4c0.2-1.1,0.4-2.3-0.2-3.1c-0.4-0.5-1.1-0.9-1.6-0.6
			C115.4,47,115.2,47.6,115.1,48.1z"/>
	</g>
</g>
<g>
	<ellipse fill="none" stroke="#000000" stroke-miterlimit="10" cx="37.3" cy="56" rx="13.8" ry="6.4"/>
	<path fill="none" stroke="#000000" stroke-miterlimit="10" d="M6.2,20.4c-0.2,1.3,0.5,2.4,1.3,3.4c0.8,1.1,1.4,2.3,1.4,3.7
		c0.1,1.3-0.3,2.6-1,3.7c-0.4,0.5-0.7,1-1,1.6c-0.3,0.7-0.6,1.3-0.8,2c-0.7,2.1-1.2,4.2-1.6,6.4c0,0.1,0,0.2-0.1,0.3
		c-1.1,6.1-1.1,12.6-0.8,18.7C4,68.2,5.5,76,7.6,83.6c0.5,1.8,1.1,3.5,1.5,5.3c0.5,2,1.2,4,1.9,5.9c0.3,0.9,0.7,1.9,1.2,2.8
		c0.1,0.3,0.3,0.6,0.5,0.8c0.3,0.3,0.8,0.5,1.2,0.4c0.4,0,0.9-0.1,1.3-0.3c0.6-0.3,1.2-0.7,1.6-1.2c0.3-0.3,0.5-0.7,0.7-1.1
		c0.3-0.5,0.5-1,0.8-1.5c0.1-0.2,0.2-0.4,0.4-0.6c0.6-0.7,1.7-0.7,2.6-0.7c1.1-0.1,2.2,0.1,3.3,0.3c2.9,0.5,5.8,1,8.7,1.6
		c2.5,0.4,5,0.9,7.6,1c4.1,0.2,8.1-0.4,12.1-1.1c2-0.3,3.9-0.6,5.9-0.9c1.7-0.3,3.3-0.6,3.9,1.2c0.5,1.5,0.6,3.4,2.8,2.9
		c0.8-0.2,1.5-0.7,2.1-1.3c2.3-2.2,4.1-4.9,5-7.9c2.3-7.3,1.9-16,1.9-23.6c-0.1-9-1.8-17.9-1.8-26.7c0-2.6-0.4-5.9,0.5-8.4
		c0.9-2.6,2.6-4.7,2.7-7.6c0-0.9-0.1-1.9-0.5-2.7c-1.2-2.3-4.4-3-6.8-2.2c-1,0.3-2,0.9-2.9,1.5c-0.7,0.5-1.4,1.4-2.3,1.6
		c-1,0.3-2,0.6-3,0.6c-0.5,0-1-0.1-1.5-0.1c-1.2-0.1-2.3-0.1-3.5-0.2c-1.2-0.1-2.3-0.2-3.5-0.2c-2.4-0.1-4.8,0-7.1,0
		c-2.6,0-5.2,0.1-7.8,0.1c-1.5,0-3,0.1-4.6,0.2c-0.6,0-1.1-0.2-1.6-0.2c-0.7,0-1.4,0-2,0.1c-3.5,0.2-7,0.1-10.5-0.2
		c-0.6-0.1-1.2-0.2-1.7-0.7c-0.5-0.4-0.9-1-1.4-1.3c-0.8-0.6-1.7-0.8-2.7-1c-1.2-0.3-2.5-0.4-3.7,0C7.4,18.2,6.4,19.2,6.2,20.4z"/>
	<path stroke="#000000" stroke-miterlimit="10" d="M15.7,46.8c-0.7,0.4-1.3,0.9-1.7,1.7c-0.6,1-0.5,2.4,0.2,3.3
		c0.7,0.9,1.9,1.4,3.1,1.2c0.7-0.1,1.2-0.5,1.8-0.9c0.4-0.3,0.7-0.6,0.9-1c0.8-1.5-0.1-3.5-1.7-4.4c-0.2-0.1-0.5-0.2-0.7-0.3
		C16.9,46.2,16.2,46.5,15.7,46.8z"/>
	<path stroke="#000000" stroke-miterlimit="10" d="M55.7,46.8c-0.7,0.4-1.3,0.9-1.7,1.7c-0.6,1-0.5,2.4,0.2,3.3
		c0.7,0.9,1.9,1.4,3.1,1.2c0.7-0.1,1.2-0.5,1.8-0.9c0.4-0.3,0.7-0.6,0.9-1c0.8-1.5-0.1-3.5-1.7-4.4c-0.2-0.1-0.5-0.2-0.7-0.3
		C56.9,46.2,56.2,46.5,55.7,46.8z"/>
	<path stroke="#000000" stroke-miterlimit="10" d="M30.1,54.1c-0.3,1.2-0.3,2.6,0.3,3.7c0.1,0.2,0.3,0.5,0.6,0.6
		c0.5,0.2,1-0.1,1.3-0.4c0.3-0.4,0.4-0.9,0.5-1.4c0.2-1.1,0.4-2.3-0.2-3.1c-0.4-0.5-1.1-0.9-1.6-0.6C30.4,53,30.2,53.6,30.1,54.1z"
		/>
	<path stroke="#000000" stroke-miterlimit="10" d="M40.1,54.1c-0.3,1.2-0.3,2.6,0.3,3.7c0.1,0.2,0.3,0.5,0.6,0.6
		c0.5,0.2,1-0.1,1.3-0.4c0.3-0.4,0.4-0.9,0.5-1.4c0.2-1.1,0.4-2.3-0.2-3.1c-0.4-0.5-1.1-0.9-1.6-0.6C40.4,53,40.2,53.6,40.1,54.1z"
		/>
</g>
<g>
	<ellipse fill="none" stroke="#000000" stroke-miterlimit="10" cx="191.3" cy="55" rx="13.8" ry="6.4"/>
	<path fill="none" stroke="#000000" stroke-miterlimit="10" d="M160.2,19.4c-0.2,1.3,0.5,2.4,1.3,3.4c0.8,1.1,1.4,2.3,1.4,3.7
		c0.1,1.3-0.3,2.6-1,3.7c-0.4,0.5-0.7,1-1,1.6c-0.3,0.7-0.6,1.3-0.8,2c-0.7,2.1-1.2,4.2-1.6,6.4c0,0.1,0,0.2-0.1,0.3
		c-1.1,6.1-1.1,12.6-0.8,18.7c0.3,8,1.8,15.8,3.9,23.4c0.5,1.8,1.1,3.5,1.5,5.3c0.5,2,1.2,4,1.9,5.9c0.3,0.9,0.7,1.9,1.2,2.8
		c0.1,0.3,0.3,0.6,0.5,0.8c0.3,0.3,0.8,0.5,1.2,0.4c0.4,0,0.9-0.1,1.3-0.3c0.6-0.3,1.2-0.7,1.6-1.2c0.3-0.3,0.5-0.7,0.7-1.1
		c0.3-0.5,0.5-1,0.8-1.5c0.1-0.2,0.2-0.4,0.4-0.6c0.6-0.7,1.7-0.7,2.6-0.7c1.1-0.1,2.2,0.1,3.3,0.3c2.9,0.5,5.8,1,8.7,1.6
		c2.5,0.4,5,0.9,7.6,1c4.1,0.2,8.1-0.4,12.1-1.1c2-0.3,3.9-0.6,5.9-0.9c1.7-0.3,3.3-0.6,3.9,1.2c0.5,1.5,0.6,3.4,2.8,2.9
		c0.8-0.2,1.5-0.7,2.1-1.3c2.3-2.2,4.1-4.9,5-7.9c2.3-7.3,1.9-16,1.9-23.6c-0.1-9-1.8-17.9-1.8-26.7c0-2.6-0.4-5.9,0.5-8.4
		c0.9-2.6,2.6-4.7,2.7-7.6c0-0.9-0.1-1.9-0.5-2.7c-1.2-2.3-4.4-3-6.8-2.2c-1,0.3-2,0.9-2.9,1.5c-0.7,0.5-1.4,1.4-2.3,1.6
		c-1,0.3-2,0.6-3,0.6c-0.5,0-1-0.1-1.5-0.1c-1.2-0.1-2.3-0.1-3.5-0.2c-1.2-0.1-2.3-0.2-3.5-0.2c-2.4-0.1-4.8,0-7.1,0
		c-2.6,0-5.2,0.1-7.8,0.1c-1.5,0-3,0.1-4.6,0.2c-0.6,0-1.1-0.2-1.6-0.2c-0.7,0-1.4,0-2,0.1c-3.5,0.2-7,0.1-10.5-0.2
		c-0.6-0.1-1.2-0.2-1.7-0.7c-0.5-0.4-0.9-1-1.4-1.3c-0.8-0.6-1.7-0.8-2.7-1c-1.2-0.3-2.5-0.4-3.7,0
		C161.4,17.2,160.4,18.2,160.2,19.4z"/>
	<path stroke="#000000" stroke-miterlimit="10" d="M169.7,45.8c-0.7,0.4-1.3,0.9-1.7,1.7c-0.6,1-0.5,2.4,0.2,3.3
		c0.7,0.9,1.9,1.4,3.1,1.2c0.7-0.1,1.2-0.5,1.8-0.9c0.4-0.3,0.7-0.6,0.9-1c0.8-1.5-0.1-3.5-1.7-4.4c-0.2-0.1-0.5-0.2-0.7-0.3
		C170.9,45.2,170.2,45.5,169.7,45.8z"/>
	<path stroke="#000000" stroke-miterlimit="10" d="M209.7,45.8c-0.7,0.4-1.3,0.9-1.7,1.7c-0.6,1-0.5,2.4,0.2,3.3
		c0.7,0.9,1.9,1.4,3.1,1.2c0.7-0.1,1.2-0.5,1.8-0.9c0.4-0.3,0.7-0.6,0.9-1c0.8-1.5-0.1-3.5-1.7-4.4c-0.2-0.1-0.5-0.2-0.7-0.3
		C210.9,45.2,210.2,45.5,209.7,45.8z"/>
	<path stroke="#000000" stroke-miterlimit="10" d="M184.1,53.1c-0.3,1.2-0.3,2.6,0.3,3.7c0.1,0.2,0.3,0.5,0.6,0.6
		c0.5,0.2,1-0.1,1.3-0.4c0.3-0.4,0.4-0.9,0.5-1.4c0.2-1.1,0.4-2.3-0.2-3.1c-0.4-0.5-1.1-0.9-1.6-0.6C184.4,52,184.2,52.6,184.1,53.1
		z"/>
	<path stroke="#000000" stroke-miterlimit="10" d="M194.1,53.1c-0.3,1.2-0.3,2.6,0.3,3.7c0.1,0.2,0.3,0.5,0.6,0.6
		c0.5,0.2,1-0.1,1.3-0.4c0.3-0.4,0.4-0.9,0.5-1.4c0.2-1.1,0.4-2.3-0.2-3.1c-0.4-0.5-1.1-0.9-1.6-0.6C194.4,52,194.2,52.6,194.1,53.1
		z"/>
</g>
</svg>
